HIERARCHY
ROOT Hips
{
 OFFSET 0.000000 0.000000 0.000000
 CHANNELS 6 Xposition Yposition Zposition Yrotation Xrotation Zrotation
 JOINT Chest
 {
  OFFSET 0.000000 14.634200 -0.016200
  CHANNELS 3 Yrotation Xrotation Zrotation
  JOINT Chest2
  {
   OFFSET 0.000000 8.932900 0.033000
   CHANNELS 3 Yrotation Xrotation Zrotation
   JOINT Chest3
   {
    OFFSET 0.000000 8.892300 0.000000
    CHANNELS 3 Yrotation Xrotation Zrotation
    JOINT Chest4
    {
     OFFSET 0.000000 8.883200 0.000000
     CHANNELS 3 Yrotation Xrotation Zrotation
     JOINT Neck
     {
      OFFSET 0.000000 13.173600 0.000000
      CHANNELS 3 Yrotation Xrotation Zrotation
      JOINT Head
      {
       OFFSET 0.000000 8.324600 0.069800
       CHANNELS 3 Yrotation Xrotation Zrotation
       End Site
       {
        OFFSET 0.000000 15.692400 0.036900
       }
      }
     }
     JOINT RightCollar
     {
      OFFSET -2.619200 8.772200 0.000000
      CHANNELS 3 Yrotation Xrotation Zrotation
      JOINT RightShoulder
      {
       OFFSET -12.922000 0.000000 0.000000
       CHANNELS 3 Yrotation Xrotation Zrotation
       JOINT RightElbow
       {
        OFFSET 0.000000 -27.880900 0.000000
        CHANNELS 3 Yrotation Xrotation Zrotation
        JOINT RightWrist
        {
         OFFSET 0.000000 -22.758700 0.008200
         CHANNELS 3 Yrotation Xrotation Zrotation
         End Site
         {
          OFFSET 0.000000 -16.965000 0.000000
         }
        }
       }
      }
     }
     JOINT LeftCollar
     {
      OFFSET 2.619200 8.772200 0.000000
      CHANNELS 3 Yrotation Xrotation Zrotation
      JOINT LeftShoulder
      {
       OFFSET 12.922000 0.000000 0.000000
       CHANNELS 3 Yrotation Xrotation Zrotation
       JOINT LeftElbow
       {
        OFFSET 0.000000 -27.880900 0.000000
        CHANNELS 3 Yrotation Xrotation Zrotation
        JOINT LeftWrist
        {
         OFFSET 0.000000 -22.758700 0.008200
         CHANNELS 3 Yrotation Xrotation Zrotation
         End Site
         {
          OFFSET 0.000000 -16.965000 0.000000
         }
        }
       }
      }
     }
    }
   }
  }
 }
 JOINT RightHip
 {
  OFFSET -12.026800 0.080100 0.008100
  CHANNELS 3 Yrotation Xrotation Zrotation
  JOINT RightKnee
  {
   OFFSET 0.000000 -42.600800 -0.000200
   CHANNELS 3 Yrotation Xrotation Zrotation
   JOINT RightAnkle
   {
    OFFSET 0.000000 -38.219300 0.054300
    CHANNELS 3 Yrotation Xrotation Zrotation
    JOINT RightToe
    {
     OFFSET 0.000000 -9.685800 15.804700
     CHANNELS 3 Yrotation Xrotation Zrotation
     End Site
     {
      OFFSET 0.000000 -1.422300 5.761700
     }
    }
   }
  }
 }
 JOINT LeftHip
 {
  OFFSET 12.026800 0.080100 0.008100
  CHANNELS 3 Yrotation Xrotation Zrotation
  JOINT LeftKnee
  {
   OFFSET 0.000000 -42.600800 -0.000200
   CHANNELS 3 Yrotation Xrotation Zrotation
   JOINT LeftAnkle
   {
    OFFSET 0.000000 -38.219300 0.054300
    CHANNELS 3 Yrotation Xrotation Zrotation
    JOINT LeftToe
    {
     OFFSET 0.000000 -9.685800 15.804700
     CHANNELS 3 Yrotation Xrotation Zrotation
     End Site
     {
      OFFSET 0.000000 -1.422300 5.761700
     }
    }
   }
  }
 }
}
MOTION
Frames: 10
Frame Time: 0.008333
-14.544167 129.393583 28.180739 168.878793 -21.605231 0.079141 2.460743 27.724799 3.679838 0.262282 5.000399 0.555288 0.481896 7.843667 0.885487 1.787525 22.502780 2.832315 -0.612169 9.518017 -5.609560 0.680224 -15.646249 -5.999412 14.315824 -31.054079 -11.929949 29.135337 -17.649737 -17.438257 -170.859408 -53.059264 -152.933870 28.213942 -22.410766 -88.933369 -0.663991 -28.329772 3.255718 -8.720577 -16.122754 4.292609 143.448551 -53.030449 179.941571 -13.095080 -32.407247 20.855498 -2.836182 -50.840511 11.117689 -21.810229 76.897408 -33.809818 -6.836070 -18.119862 11.033655 -0.005012 -0.006815 -0.003071 20.141858 -49.151322 -20.999600 78.671421 76.141544 88.995056 6.789888 -2.263052 -5.020222 -0.001497 0.002439 -0.000917
-14.544167 129.393184 28.179625 168.887493 -21.602551 0.080835 2.420226 27.750117 3.663733 0.252145 5.000838 0.548963 0.469647 7.852489 0.881451 1.748615 22.515591 2.814077 -0.583656 9.494465 -5.622218 0.705950 -15.671015 -6.024134 14.309341 -31.096207 -11.932498 29.156427 -17.630603 -17.435784 -170.898167 -53.041794 -152.918153 28.197991 -22.455259 -88.946277 -0.664456 -28.367923 3.255829 -8.701957 -16.126554 4.298611 143.441194 -53.039743 179.946801 -13.043231 -32.424097 20.830232 -2.831982 -50.848740 11.123727 -21.894625 76.900427 -33.897200 -6.842181 -18.120319 11.032850 -0.000456 -0.007951 -0.000280 20.107910 -49.158013 -20.984615 78.679990 76.135996 88.983255 6.786464 -2.262781 -5.015882 -0.002826 0.001674 -0.001732
-14.545176 129.392903 28.177826 168.897221 -21.601190 0.084238 2.338283 27.789216 3.619427 0.287027 4.982047 0.549202 0.444855 7.863315 0.877651 1.707870 22.525884 2.796139 -0.527075 9.469232 -5.640851 0.702339 -15.685576 -6.040222 14.367375 -31.126428 -11.953082 29.119790 -17.597834 -17.445313 -170.861145 -53.000170 -152.940751 28.237752 -22.323822 -88.964275 -0.670717 -28.397584 3.258396 -8.768940 -16.122181 4.287819 143.488580 -53.056982 179.929118 -13.055707 -32.411328 20.834767 -2.831622 -50.851710 11.116199 -21.931325 76.904842 -33.936859 -6.838644 -18.127618 11.032427 -0.003361 -0.006000 -0.002060 20.079138 -49.163390 -20.976164 78.687822 76.132666 88.976266 6.781558 -2.257070 -5.017422 -0.003396 -0.000328 -0.002081
-14.546379 129.392061 28.177208 168.917229 -21.593981 0.081283 2.276456 27.800218 3.592306 0.314684 4.971862 0.550501 0.426372 7.870225 0.875873 1.633947 22.543692 2.780162 -0.466428 9.450427 -5.663208 0.687623 -15.704098 -6.057771 14.428656 -31.148350 -11.973653 29.077096 -17.565383 -17.459583 -170.901949 -53.008738 -152.924961 28.231200 -22.309688 -88.984124 -0.675412 -28.418093 3.256751 -8.778242 -16.113334 4.292169 143.319526 -53.022580 -179.989293 -13.173760 -32.360961 20.884054 -2.838510 -50.861261 11.108608 -21.973562 76.907700 -33.977278 -6.835779 -18.132935 11.034190 -0.004776 -0.005139 -0.002927 20.048416 -49.174997 -20.974028 78.668830 76.131194 88.954134 6.772454 -2.242475 -5.019802 -0.000866 -0.001807 -0.000531
-14.547128 129.391459 28.175928 168.929211 -21.588969 0.077747 2.242905 27.804106 3.579400 0.287263 4.981513 0.548200 0.392868 7.879369 0.867669 1.602323 22.545461 2.759348 -0.437853 9.433576 -5.682860 0.704638 -15.731196 -6.086434 14.338548 -31.180208 -11.950935 29.153086 -17.564352 -17.452305 -170.936762 -53.019114 -152.911327 28.206415 -22.322657 -88.994558 -0.680521 -28.432717 3.255198 -8.799419 -16.105377 4.299525 143.251852 -53.005459 -179.955133 -13.224401 -32.335789 20.914371 -2.846436 -50.864713 11.109841 -21.995388 76.905089 -33.999165 -6.835073 -18.136506 11.030914 -0.005225 -0.001683 -0.003202 20.033993 -49.181649 -20.974154 78.670364 76.133442 88.952923 6.783367 -2.240121 -5.022090 0.000194 -0.002039 0.000119
-14.547914 129.389841 28.177180 168.957890 -21.572665 0.064317 2.195081 27.797025 3.569220 0.215842 5.005615 0.537000 0.398450 7.874576 0.863201 1.568346 22.547494 2.738162 -0.477753 9.407936 -5.700679 0.795609 -15.762775 -6.132584 14.307366 -31.208618 -11.943365 29.183141 -17.551448 -17.459905 -170.935545 -53.013286 -152.917264 28.183966 -22.314000 -88.992411 -0.687378 -28.446407 3.255251 -8.826378 -16.098221 4.312091 143.227046 -52.998516 -179.931189 -13.241690 -32.331193 20.936078 -2.877857 -50.887104 11.125273 -22.010887 76.914668 -34.015288 -6.839922 -18.132869 11.017615 0.000719 -0.004609 0.000441 19.986648 -49.207963 -20.961062 78.696449 76.136724 88.962370 6.792566 -2.242020 -5.024672 0.001429 0.001848 0.000876
-14.549312 129.388679 28.177152 168.975864 -21.560630 0.056588 2.078267 27.824738 3.512010 0.235878 4.995976 0.537961 0.394418 7.873891 0.859725 1.514162 22.554790 2.716743 -0.477102 9.379493 -5.724584 0.849487 -15.793579 -6.173108 14.313675 -31.233329 -11.948280 29.191513 -17.533288 -17.477537 -170.944757 -53.004548 -152.920796 28.155924 -22.309431 -88.977478 -0.618982 -28.466049 3.235510 -8.915603 -16.093382 4.310099 143.196547 -52.991912 -179.897118 -13.264545 -32.332615 20.962750 -2.899238 -50.904542 11.134390 -22.009853 76.923823 -34.021359 -6.846657 -18.130408 11.021562 -0.000076 -0.007475 -0.000047 19.929590 -49.238971 -20.934652 78.752572 76.136673 88.988419 6.801090 -2.236311 -5.030314 0.003104 -0.001093 0.001902
-14.551013 129.387845 28.176390 168.990555 -21.551279 0.050617 2.037349 27.826097 3.497233 0.197673 5.007857 0.531756 0.376273 7.878290 0.854496 1.457737 22.563194 2.693505 -0.453078 9.350519 -5.749959 0.918534 -15.812977 -6.204371 14.325831 -31.259220 -11.953516 29.202352 -17.510819 -17.500423 -170.969906 -52.987161 -152.920861 28.123050 -22.305867 -88.952718 -0.655937 -28.477195 3.247200 -8.921006 -16.093003 4.329340 143.162346 -52.988756 -179.858352 -13.295876 -32.339029 20.993217 -2.916607 -50.920186 11.140749 -22.030640 76.929362 -34.045533 -6.842649 -18.126232 11.019394 0.000742 -0.009517 0.000455 19.904778 -49.255746 -20.928067 78.785945 76.134522 89.015781 6.786720 -2.236029 -5.032611 0.003192 -0.000846 0.001956
-14.552901 129.387381 28.174890 169.003376 -21.545151 0.045725 1.996847 27.830354 3.481225 0.156383 5.021412 0.523723 0.357683 7.884405 0.848674 1.399816 22.573592 2.667907 -0.427312 9.320134 -5.773955 0.991108 -15.836138 -6.235698 14.342956 -31.288907 -11.957938 29.264314 -17.513798 -17.502848 -171.087063 -53.009611 -152.862796 28.088590 -22.300096 -88.929724 -0.690658 -28.491421 3.262561 -8.929071 -16.098391 4.344315 143.119321 -52.991391 -179.815486 -13.331449 -32.348862 21.025138 -2.931530 -50.932023 11.145921 -22.041453 76.935440 -34.059676 -6.844132 -18.122103 11.017287 0.000686 -0.010859 0.000421 19.890776 -49.264247 -20.927717 78.806884 76.130905 89.034013 6.780136 -2.239096 -5.032331 0.003034 -0.000154 0.001859
-14.554974 129.386957 28.173521 169.016326 -21.538931 0.040672 1.924842 27.845342 3.445721 0.139611 5.028504 0.519034 0.338759 7.892313 0.842496 1.340546 22.586003 2.640833 -0.399872 9.287178 -5.797784 1.030351 -15.871290 -6.271850 14.366915 -31.322547 -11.964526 29.250332 -17.471775 -17.543088 -171.091351 -52.956430 -152.878684 28.057948 -22.290377 -88.921085 -0.683239 -28.516373 3.265335 -8.965589 -16.106832 4.350653 143.057384 -52.996367 -179.765942 -13.366797 -32.356236 21.054311 -2.948283 -50.942091 11.153924 -22.060214 76.937860 -34.084186 -6.845515 -18.118291 11.017944 0.000723 -0.010786 0.000443 19.859340 -49.279387 -20.914538 78.840040 76.130609 89.048477 6.774452 -2.237812 -5.024543 -0.000278 -0.001076 -0.000171
